<svg xmlns="http://www.w3.org/2000/svg" version="1.1" xmlns:xlink="http://www.w3.org/1999/xlink" xmlns:svgjs="http://svgjs.dev/svgjs" width="1440" height="560" preserveAspectRatio="none" viewBox="0 0 1440 560"><g clip-path="url(&quot;#SvgjsClipPath1000&quot;)" fill="none"><rect width="1440" height="560" x="0" y="0" fill="#0e2a47"></rect><circle r="93.335" cx="15.73" cy="19.16" stroke="#365aa3" stroke-opacity="0.25" stroke-width="2"></circle><circle r="93.335" cx="324.37" cy="425.97" stroke="#365aa3" stroke-opacity="0.25" stroke-width="2"></circle><circle r="93.335" cx="673.54" cy="688.58" stroke="#365aa3" stroke-opacity="0.25" stroke-width="2"></circle><circle r="66.85" cx="1300.39" cy="86.95" stroke="#365aa3" stroke-opacity="0.25" stroke-width="2"></circle><circle r="71.115" cx="799.99" cy="536.28" stroke="#365aa3" stroke-opacity="0.25" stroke-width="2"></circle><circle r="123.5" cx="367.64" cy="356.31" stroke="#365aa3" stroke-opacity="0.25" stroke-width="2"></circle><circle r="122.565" cx="962.55" cy="273.37" stroke="#365aa3" stroke-opacity="0.25" stroke-width="2"></circle><circle r="73.485" cx="435.19" cy="311.48" stroke="#365aa3" stroke-opacity="0.25" stroke-width="2"></circle><circle r="77.94" cx="946.13" cy="405.99" stroke="#365aa3" stroke-opacity="0.25" stroke-width="2"></circle><circle r="87.97" cx="1272.84" cy="361.17" stroke="#365aa3" stroke-opacity="0.25" stroke-width="2"></circle><circle r="142.215" cx="926.81" cy="513.55" stroke="#365aa3" stroke-opacity="0.25" stroke-width="2"></circle><circle r="170.28" cx="1366.6" cy="204.14" stroke="#365aa3" stroke-opacity="0.25" stroke-width="2"></circle><circle r="101.83" cx="1149.23" cy="207.37" stroke="#365aa3" stroke-opacity="0.25" stroke-width="2"></circle><circle r="85.195" cx="641.98" cy="133.1" stroke="#365aa3" stroke-opacity="0.25" stroke-width="2"></circle><circle r="159.12" cx="1260.36" cy="410.83" stroke="#365aa3" stroke-opacity="0.25" stroke-width="2"></circle><circle r="64.095" cx="542.59" cy="222.75" stroke="#365aa3" stroke-opacity="0.25" stroke-width="2"></circle><circle r="79.31" cx="665.62" cy="310.31" stroke="#365aa3" stroke-opacity="0.25" stroke-width="2"></circle><circle r="160.725" cx="828.44" cy="189.25" stroke="#365aa3" stroke-opacity="0.25" stroke-width="2"></circle><circle r="56.015" cx="509.39" cy="229.63" stroke="#365aa3" stroke-opacity="0.25" stroke-width="2"></circle><circle r="138.54" cx="820.78" cy="105.54" stroke="#365aa3" stroke-opacity="0.25" stroke-width="2"></circle><circle r="186.425" cx="1076.77" cy="317.69" stroke="#365aa3" stroke-opacity="0.25" stroke-width="2"></circle><circle r="157.875" cx="1411.58" cy="15.33" stroke="#365aa3" stroke-opacity="0.25" stroke-width="2"></circle><circle r="154.84" cx="810.08" cy="180.84" stroke="#365aa3" stroke-opacity="0.25" stroke-width="2"></circle><circle r="151.43" cx="1291.85" cy="116.41" stroke="#365aa3" stroke-opacity="0.25" stroke-width="2"></circle><circle r="117.535" cx="270.26" cy="115.57" stroke="#365aa3" stroke-opacity="0.25" stroke-width="2"></circle><circle r="112.18" cx="734.51" cy="319.58" stroke="#365aa3" stroke-opacity="0.25" stroke-width="2"></circle><circle r="153.655" cx="1411.4" cy="8.7" stroke="#365aa3" stroke-opacity="0.25" stroke-width="2"></circle><circle r="172.505" cx="750.13" cy="423.75" stroke="#365aa3" stroke-opacity="0.25" stroke-width="2"></circle><circle r="124.225" cx="1202.19" cy="403.08" stroke="#365aa3" stroke-opacity="0.25" stroke-width="2"></circle><circle r="72.795" cx="332.49" cy="189.14" stroke="#365aa3" stroke-opacity="0.25" stroke-width="2"></circle><circle r="136.97" cx="577.14" cy="406.37" stroke="#365aa3" stroke-opacity="0.25" stroke-width="2"></circle><circle r="55.62" cx="1432.78" cy="373.12" stroke="#365aa3" stroke-opacity="0.25" stroke-width="2"></circle><circle r="156.815" cx="539.98" cy="403.72" stroke="#365aa3" stroke-opacity="0.25" stroke-width="2"></circle><circle r="128.42" cx="607.84" cy="207.08" stroke="#365aa3" stroke-opacity="0.25" stroke-width="2"></circle><circle r="56.125" cx="426.1" cy="522.57" stroke="#365aa3" stroke-opacity="0.25" stroke-width="2"></circle><circle r="152.085" cx="736.28" cy="184.95" stroke="#365aa3" stroke-opacity="0.25" stroke-width="2"></circle><circle r="56.72" cx="363.7" cy="237.64" stroke="#365aa3" stroke-opacity="0.25" stroke-width="2"></circle><circle r="120.875" cx="1278.45" cy="30" stroke="#365aa3" stroke-opacity="0.25" stroke-width="2"></circle><circle r="55.205" cx="483.94" cy="529.71" stroke="#365aa3" stroke-opacity="0.25" stroke-width="2"></circle><circle r="114.28" cx="963.63" cy="217.1" stroke="#365aa3" stroke-opacity="0.25" stroke-width="2"></circle></g><defs><clipPath id="SvgjsClipPath1000"><rect width="1440" height="560" x="0" y="0"></rect></clipPath></defs></svg>